<svg width="30" height="30" viewBox="0 0 30 30" fill="none" xmlns="http://www.w3.org/2000/svg">
<path fill-rule="evenodd" clip-rule="evenodd" d="M15 30C6.71573 30 0 23.2843 0 15C0 6.71573 6.71573 0 15 0C23.2843 0 30 6.71573 30 15C30 23.2843 23.2843 30 15 30ZM25.0902 21.9883C26.4663 20.0051 27.2727 17.5968 27.2727 15.0001C27.2727 8.22204 21.778 2.72736 15 2.72736C8.22196 2.72736 2.72727 8.22204 2.72727 15.0001C2.72727 17.5968 3.53371 20.0051 4.90979 21.9883C6.44132 19.9653 10.0359 19.0946 14.9692 19.091C11.9305 19.0767 9.54546 16.9309 9.54546 12.2729C9.54546 9.21261 11.6988 6.81839 15 6.81839C18.2921 6.81839 20.4545 9.43872 20.4545 12.5457C20.4545 17.0026 18.0412 19.0769 15.031 19.091C19.9642 19.0947 23.5587 19.9653 25.0902 21.9883ZM23.1336 24.1907C22.7345 22.7556 19.8673 21.8183 15 21.8183C10.1327 21.8183 7.2655 22.7556 6.86635 24.1907C9.03178 26.1085 11.8799 27.2728 15 27.2728C18.1201 27.2728 20.9682 26.1085 23.1336 24.1907ZM12.2727 12.2726C12.2727 15.367 13.3885 16.3635 15 16.3635C16.606 16.3635 17.7273 15.4067 17.7273 12.5453C17.7273 10.8413 16.6577 9.54529 15 9.54529C13.2733 9.54529 12.2727 10.6578 12.2727 12.2726Z" fill="black"/>
</svg>
